<?xml version="1.0" encoding="UTF-8" standalone="no"?>
<!-- Created with Inkscape (http://www.inkscape.org/) -->

<svg
   xmlns:dc="http://purl.org/dc/elements/1.1/"
   xmlns:cc="http://creativecommons.org/ns#"
   xmlns:rdf="http://www.w3.org/1999/02/22-rdf-syntax-ns#"
   xmlns:svg="http://www.w3.org/2000/svg"
   xmlns="http://www.w3.org/2000/svg"
   xmlns:sodipodi="http://sodipodi.sourceforge.net/DTD/sodipodi-0.dtd"
   xmlns:inkscape="http://www.inkscape.org/namespaces/inkscape"
   width="284.88843mm"
   height="104.11218mm"
   viewBox="0 0 284.88843 104.11219"
   version="1.1"
   id="svg8"
   inkscape:version="0.92.3 (2405546, 2018-03-11)"
   sodipodi:docname="logo-site.svg">
  <defs
     id="defs2">
    <inkscape:path-effect
       effect="bspline"
       id="path-effect932"
       is_visible="true"
       weight="33.333333"
       steps="2"
       helper_size="0"
       apply_no_weight="true"
       apply_with_weight="true"
       only_selected="false" />
    <inkscape:path-effect
       effect="bspline"
       id="path-effect928"
       is_visible="true"
       weight="33.333333"
       steps="2"
       helper_size="0"
       apply_no_weight="true"
       apply_with_weight="true"
       only_selected="false" />
    <inkscape:path-effect
       effect="bspline"
       id="path-effect906"
       is_visible="true"
       weight="33.333333"
       steps="2"
       helper_size="0"
       apply_no_weight="true"
       apply_with_weight="true"
       only_selected="false" />
    <inkscape:perspective
       sodipodi:type="inkscape:persp3d"
       inkscape:vp_x="0 : 148.5 : 1"
       inkscape:vp_y="0 : 1000 : 0"
       inkscape:vp_z="210.00001 : 148.50001 : 1"
       inkscape:persp3d-origin="105 : 99.000002 : 1"
       id="perspective817" />
  </defs>
  <sodipodi:namedview
     id="base"
     pagecolor="#8bcaff"
     bordercolor="#666666"
     borderopacity="1.0"
     inkscape:pageopacity="0"
     inkscape:pageshadow="2"
     inkscape:zoom="0.31567308"
     inkscape:cx="378.86865"
     inkscape:cy="271.78095"
     inkscape:document-units="mm"
     inkscape:current-layer="layer1"
     showgrid="false"
     fit-margin-top="0"
     fit-margin-left="0"
     fit-margin-right="0"
     fit-margin-bottom="0"
     inkscape:window-width="1024"
     inkscape:window-height="688"
     inkscape:window-x="0"
     inkscape:window-y="0"
     inkscape:window-maximized="1" />
  <metadata
     id="metadata5">
    <rdf:RDF>
      <cc:Work
         rdf:about="">
        <dc:format>image/svg+xml</dc:format>
        <dc:type
           rdf:resource="http://purl.org/dc/dcmitype/StillImage" />
        <dc:title></dc:title>
      </cc:Work>
    </rdf:RDF>
  </metadata>
  <g
     inkscape:label="Camada 1"
     inkscape:groupmode="layer"
     id="layer1"
     transform="translate(-50.431963,-40.307467)">
    <g
       id="g1240">
      <g
         id="g1010">
        <path
           inkscape:connector-curvature="0"
           style="fill:#feffff;fill-opacity:1;stroke:#fffff0;stroke-width:0.69999999;stroke-linecap:butt;stroke-linejoin:round;stroke-miterlimit:4;stroke-dasharray:none;stroke-dashoffset:0;stroke-opacity:0.99545456;paint-order:normal"
           d="m 92.872882,40.657467 c -0.924621,0 -1.668632,0.744519 -1.668632,1.669148 v 6.676078 c 0,0.811919 0.574,1.484079 1.339972,1.636075 v 4.559929 c 0,0.222197 0.04013,0.434375 0.110069,0.632002 a 18.020356,20.534823 0 0 0 -15.543752,20.315039 18.020356,20.534823 0 0 0 3.129007,11.529013 l -9.390642,16.265669 h -10.86962 c -0.998926,0 -1.80299,0.80407 -1.80299,1.803 v 2.91041 c 0,0.99893 0.804064,1.80299 1.80299,1.80299 h 7.10706 l -12.233362,21.18941 c -0.371287,0.67444 -0.605099,1.47303 -0.659392,2.23655 l -3.411678,10.18698 7.429006,-8.16229 c 0.485177,-0.39301 0.95005,-0.91168 1.358571,-1.53789 l 15.599566,-23.91276 h 39.570195 l 15.60008,23.91276 c 0.40852,0.62621 0.87289,1.14488 1.35806,1.53789 l 7.429,8.16229 -3.41116,-10.18698 c -0.0543,-0.76352 -0.28811,-1.56211 -0.65939,-2.23655 l -12.23388,-21.18941 h 5.90816 c 0.99893,0 1.803,-0.80406 1.803,-1.80299 v -2.91041 c 0,-0.99893 -0.80407,-1.803 -1.803,-1.803 h -9.67021 L 109.84446,87.979125 A 18.020356,20.534823 0 0 0 113.15123,76.145738 18.020356,20.534823 0 0 0 97.271579,55.782641 c 0.05942,-0.183761 0.09199,-0.379881 0.09199,-0.583944 v -4.559929 c 0.765971,-0.151996 1.339969,-0.824156 1.339969,-1.636075 v -6.676078 c 0,-0.924629 -0.74399,-1.669148 -1.668632,-1.669148 z M 73.933988,92.6052 c -0.369202,0.03392 -0.802928,0.362135 -1.096573,0.870746 l -2.826703,4.896858 c -0.39153,0.678151 -0.381748,1.412367 0.02273,1.645896 0.40449,0.23353 1.045591,-0.124901 1.437121,-0.803052 l 0.994254,-1.721858 1.529107,0.882634 0.995288,-1.723927 -1.529106,-0.882634 0.837676,-1.450557 c 0.39153,-0.678148 0.380719,-1.411849 -0.02376,-1.645378 -0.101121,-0.05838 -0.216963,-0.08004 -0.340029,-0.06873 z m 42.040322,0 c -0.12306,-0.0113 -0.2389,0.01035 -0.34003,0.06873 -0.4045,0.233529 -0.41478,0.96723 -0.0233,1.645378 l 0.83716,1.450557 -1.52911,0.882634 0.99529,1.723927 1.5291,-0.882634 0.99426,1.721858 c 0.39153,0.678145 1.03263,1.03658 1.43712,0.80305 0.40446,-0.233529 0.41478,-0.967743 0.0233,-1.645894 l -2.82722,-4.896858 c -0.29365,-0.508611 -0.72737,-0.836826 -1.09658,-0.870746 z m -29.960439,1.227831 a 18.020356,20.534823 0 0 0 9.116756,2.847887 18.020356,20.534823 0 0 0 8.868193,-2.688206 l 6.48952,9.947708 H 79.420476 Z"
           id="path815" />
        <path
           style="fill:none;fill-opacity:1;stroke:#dbdbe0;stroke-width:2.5;stroke-linecap:butt;stroke-linejoin:round;stroke-miterlimit:4;stroke-dasharray:none;stroke-dashoffset:0;stroke-opacity:1;paint-order:normal"
           d="M 105.50238,76.145852 A 10.371654,12.297817 0 0 1 95.130729,88.443669 10.371654,12.297817 0 0 1 84.759069,76.145852 10.371654,12.297817 0 0 1 95.130729,63.848035 10.371654,12.297817 0 0 1 105.50238,76.145852 Z"
           id="path862"
           inkscape:connector-curvature="0" />
        <path
           style="fill:#dbdbe0;fill-opacity:1;stroke:none;stroke-width:0.26458332px;stroke-linecap:butt;stroke-linejoin:miter;stroke-opacity:1"
           d="m 51.7101,142.38828 c 6.815845,-11.18688 13.631502,-22.37345 16.952788,-28.10243 3.321287,-5.72898 3.148418,-6.00062 0.827866,-6.06235 -2.320552,-0.0617 -6.791368,0.0865 -9.051027,0.37034 -2.259659,0.28385 -2.309045,0.70363 -2.197782,0.97549 0.111263,0.27185 0.382709,0.39524 0.779162,0.55175 0.396452,0.1565 0.961771,0.36207 1.900048,0.3744 0.938276,0.0123 2.272139,-0.16059 3.355883,-0.19897 1.083745,-0.0384 1.956257,0.0621 2.19087,0.49396 0.234613,0.43188 -0.149581,1.19815 -2.231515,4.71867 -2.081933,3.52051 -5.858613,9.79029 -7.815433,13.31162 -1.95682,3.52132 -2.092066,4.2915 -2.461253,5.53107 -0.369187,1.23957 -0.971894,2.94716 -1.430554,4.2903 -0.45866,1.34315 -0.772908,2.32081 -0.886471,2.94955 -0.113563,0.62874 -0.02628,0.90804 0.06108,1.18758"
           id="path904"
           inkscape:connector-curvature="0"
           inkscape:path-effect="#path-effect906"
           inkscape:original-d="m 51.7101,142.38828 c 6.815923,-11.18683 13.631579,-22.3734 20.446973,-33.55971 -0.172593,-0.27189 -0.345458,-0.54354 -0.518583,-0.81491 -4.468297,0.14786 -8.939112,0.29607 -13.409065,0.4445 -0.04913,0.41956 -0.09851,0.83934 -0.148166,1.25941 0.272092,0.1233 0.543541,0.24668 0.814914,0.37042 0.51862,0.1972 1.086818,0.39485 1.629833,0.59266 1.333397,-0.17307 2.667259,-0.34598 4.000494,-0.51858 0.83969,0.0491 1.706828,0.19624 2.559844,0.29475 -0.38372,0.76558 -0.767911,1.53185 -1.152263,2.29817 -3.779546,6.27471 -7.556225,12.54449 -11.334736,18.81714 -0.134994,0.76999 -0.270238,1.54017 -0.405755,2.31065 -0.602916,1.70867 -1.205621,3.41626 -1.808832,5.12478 -0.314102,0.97777 -0.628351,1.95543 -0.942924,2.93355 0.0876,0.27921 0.174881,0.55851 0.261924,0.83815" />
        <path
           style="fill:#dbdbe0;fill-opacity:1;stroke:none;stroke-width:0.26458332px;stroke-linecap:butt;stroke-linejoin:miter;stroke-opacity:1"
           d="m 70.848904,103.94042 c 1.498197,-0.0992 2.996113,-0.19847 4.381163,-1.15348 1.38505,-0.95501 2.681015,-2.799268 4.076101,-5.169699 1.395085,-2.37043 2.901694,-5.284853 3.840061,-7.099852 0.938368,-1.815 1.308825,-2.531215 0.97558,-3.617314 -0.333246,-1.086099 -1.370869,-2.543713 -2.02527,-3.877263 -0.654401,-1.33355 -0.926049,-2.543619 -1.123581,-3.988131 -0.197532,-1.444511 -0.321025,-3.124001 -0.228411,-4.969791 0.09261,-1.84579 0.401339,-3.858676 1.438591,-6.044129 1.037253,-2.185453 3.256558,-5.1497 4.643617,-6.680794 1.387059,-1.531095 3.860207,-3.74676 4.292449,-4.51221 0.432242,-0.765451 -0.67121,-0.533716 -1.966956,0.009 -1.295745,0.542735 -2.82027,1.417462 -4.129212,2.392964 -1.308941,0.975501 -2.419958,2.061828 -3.475808,3.469592 -1.05585,1.407764 -2.055734,3.135959 -2.654642,4.38927 -0.598908,1.253312 -0.796428,2.031045 -1.034681,3.104661 -0.238252,1.073616 -0.51968,2.455222 -0.659802,3.666945 -0.140121,1.211724 -0.140121,2.259186 -0.08337,3.258999 0.05675,0.999813 0.170222,1.951231 0.38852,3.03402 0.218299,1.082789 0.54126,2.296075 0.947276,3.457383 0.406015,1.161308 0.894865,2.26995 1.211066,2.9457 0.3162,0.67575 0.442845,0.88994 0.416731,1.173634 -0.02611,0.283693 -0.213491,0.622659 -0.573731,1.181087 -0.360241,0.558428 -0.892326,1.334747 -1.673877,2.661857 -0.781552,1.32711 -1.811237,3.202835 -2.810989,4.966595 -0.999752,1.76376 -1.968853,3.414265 -2.619372,4.431787 -0.650519,1.01752 -0.982225,1.4016 -1.176522,1.67956 -0.194297,0.27796 -0.250904,0.44951 -0.285038,0.57869 -0.03413,0.12919 -0.04727,0.22773 -0.04408,0.27105 0.0032,0.0433 0.02179,0.0371 0.01687,0.10091 -0.0049,0.0638 -0.03401,0.20239 -0.06268,0.33896 0,0 0,0 0,0"
           id="path926"
           inkscape:connector-curvature="0"
           inkscape:path-effect="#path-effect928"
           inkscape:original-d="m 70.848904,103.94042 c 1.49818,-0.0995 2.996097,-0.19871 4.493747,-0.29767 1.284134,-1.80262 2.568485,-3.65504 3.852328,-5.482163 1.506376,-2.913724 3.012985,-5.828146 4.519078,-8.741822 0.370642,-0.716323 0.741098,-1.432539 1.11125,-2.148412 -1.036442,-1.456592 -2.074066,-2.914205 -3.111497,-4.370911 -0.271365,-1.210249 -0.543013,-2.420318 -0.814914,-3.630081 -0.123188,-1.679212 -0.246682,-3.358702 -0.370417,-5.037658 0.308901,-2.012569 0.617626,-4.025455 0.926041,-6.037783 1.765914,-2.35858 3.985218,-5.322827 5.296951,-7.074951 1.462329,-1.310112 3.935477,-3.525777 5.90282,-5.28827 -1.102887,0.231408 -2.206339,0.463143 -3.309906,0.695109 -1.481812,0.864282 -3.012456,1.728345 -4.519078,2.592914 -1.111215,1.086516 -2.222233,2.172842 -3.333747,3.259663 -1.000099,1.728759 -1.999983,3.456954 -3.00037,5.185826 -0.197326,0.77775 -0.394846,1.555483 -0.592667,2.333622 -0.288763,1.367031 -0.560096,2.750693 -0.840541,4.126436 2.65e-4,1.047663 2.65e-4,2.095125 0,3.143084 0.113792,0.951632 0.227264,1.90305 0.3405,2.85497 0.323382,1.21361 0.646343,2.426896 0.969119,3.640741 0.489262,1.108713 0.978111,2.217356 1.466773,3.326432 0.09631,0.27042 0.270378,0.45657 0.405172,0.685255 -0.187243,0.338936 -0.374621,0.677902 -0.562327,1.017251 -0.532807,0.777497 -1.064892,1.553816 -1.597736,2.331119 -1.030224,1.876928 -2.059911,3.752652 -3.090262,5.629376 -0.969164,1.650793 -1.938264,3.301299 -2.907792,4.952343 -0.331568,0.38397 -0.663276,0.76805 -0.99531,1.15247 -0.05642,0.17153 -0.11303,0.34308 -0.169939,0.51502 -0.01212,0.0863 -0.02442,0.18495 -0.03704,0.27781 0.01884,-0.006 0.03731,-0.0126 0.05556,-0.0185 -0.02784,0.13367 -0.05693,0.27227 -0.0858,0.4088 0,0 2.65e-4,-2.6e-4 0,0"
           sodipodi:nodetypes="cccccccccccccccccccccccccccccccc" />
        <path
           inkscape:connector-curvature="0"
           id="path924"
           d="m 92.872882,40.657467 c -0.924621,0 -1.668632,0.744519 -1.668632,1.669148 v 6.676078 c 0,0.811919 0.574,1.484079 1.339972,1.636075 v 4.559929 c 0,0.222197 0.04013,0.434375 0.110069,0.632002 a 18.020356,20.534823 0 0 0 -15.543752,20.315039 18.020356,20.534823 0 0 0 3.129007,11.529013 l -9.390642,16.265669 h -10.86962 c -0.998926,0 -1.80299,0.80407 -1.80299,1.803 v 2.91041 c 0,0.99893 0.804064,1.80299 1.80299,1.80299 h 7.10706 l -12.233362,21.18941 c -0.371287,0.67444 -0.605099,1.47303 -0.659392,2.23655 l -3.411678,10.18698 7.429006,-8.16229 c 0.485177,-0.39301 0.95005,-0.91168 1.358571,-1.53789 l 15.599566,-23.91276 h 39.570195 l 15.60008,23.91276 c 0.40852,0.62621 0.87289,1.14488 1.35806,1.53789 l 7.429,8.16229 -3.41116,-10.18698 c -0.0543,-0.76352 -0.28811,-1.56211 -0.65939,-2.23655 l -12.23388,-21.18941 h 5.90816 c 0.99893,0 1.803,-0.80406 1.803,-1.80299 v -2.91041 c 0,-0.99893 -0.80407,-1.803 -1.803,-1.803 h -9.67021 L 109.84446,87.979125 A 18.020356,20.534823 0 0 0 113.15123,76.145738 18.020356,20.534823 0 0 0 97.271579,55.782641 c 0.05942,-0.183761 0.09199,-0.379881 0.09199,-0.583944 v -4.559929 c 0.765971,-0.151996 1.339969,-0.824156 1.339969,-1.636075 v -6.676078 c 0,-0.924629 -0.74399,-1.669148 -1.668632,-1.669148 z M 73.933988,92.6052 c -0.369202,0.03392 -0.802928,0.362135 -1.096573,0.870746 l -2.826703,4.896858 c -0.39153,0.678151 -0.381748,1.412367 0.02273,1.645896 0.40449,0.23353 1.045591,-0.124901 1.437121,-0.803052 l 0.994254,-1.721858 1.529107,0.882634 0.995288,-1.723927 -1.529106,-0.882634 0.837676,-1.450557 c 0.39153,-0.678148 0.380719,-1.411849 -0.02376,-1.645378 -0.101121,-0.05838 -0.216963,-0.08004 -0.340029,-0.06873 z m 42.040322,0 c -0.12306,-0.0113 -0.2389,0.01035 -0.34003,0.06873 -0.4045,0.233529 -0.41478,0.96723 -0.0233,1.645378 l 0.83716,1.450557 -1.52911,0.882634 0.99529,1.723927 1.5291,-0.882634 0.99426,1.721858 c 0.39153,0.678145 1.03263,1.03658 1.43712,0.80305 0.40446,-0.233529 0.41478,-0.967743 0.0233,-1.645894 l -2.82722,-4.896858 c -0.29365,-0.508611 -0.72737,-0.836826 -1.09658,-0.870746 z m -29.960439,1.227831 a 18.020356,20.534823 0 0 0 9.116756,2.847887 18.020356,20.534823 0 0 0 8.868193,-2.688206 l 6.48952,9.947708 H 79.420476 Z"
           style="fill:none;fill-opacity:1;stroke:#feffff;stroke-width:0.69999999;stroke-linecap:butt;stroke-linejoin:round;stroke-miterlimit:4;stroke-dasharray:none;stroke-dashoffset:0;stroke-opacity:0.99545456;paint-order:normal" />
        <path
           style="fill:#dbdbe0;fill-opacity:1;stroke:none;stroke-width:0.26458332px;stroke-linecap:butt;stroke-linejoin:miter;stroke-opacity:1"
           d="m 90.640964,84.146369 c 1.444746,-1.642318 4.333992,-4.926676 5.815533,-8.445464 1.48154,-3.518789 1.55563,-7.27266 1.654554,-9.161676 0.09892,-1.889016 0.222403,-1.91371 1.07228,-1.371758 0.849879,0.541952 2.434229,1.655947 3.644189,3.211579 1.20996,1.555632 2.04959,3.555943 2.383,5.81549 0.33341,2.259546 0.16056,4.778212 -0.46911,6.803229 -0.62967,2.025016 -1.71611,3.5559 -3.09911,4.76608 -1.383,1.210179 -3.06189,2.099004 -4.840103,2.457152 -1.778213,0.358147 -3.654635,0.185319 -4.778358,-0.0493 -1.123722,-0.234614 -1.494092,-0.530909 -1.70404,-0.740898 -0.209949,-0.20999 -0.259333,-0.33345 -0.407251,-0.432093 -0.147918,-0.09864 -0.395133,-0.172808 -0.592793,-0.259277 -0.197661,-0.08647 -0.345726,-0.18518 -0.35799,-0.345918 -0.01226,-0.160737 0.111156,-0.382895 0.172804,-0.493862 0.06165,-0.110968 0.06165,-0.110971 1.506395,-1.753289 z"
           id="path930"
           inkscape:connector-curvature="0"
           inkscape:path-effect="#path-effect932"
           inkscape:original-d="m 89.196218,85.788687 c 2.88951,-3.28462 5.778757,-6.568977 8.667737,-9.85307 0.07434,-3.753496 0.148431,-7.507367 0.22225,-11.260651 0.12373,-0.02495 0.247208,-0.04965 0.370417,-0.07408 1.576798,1.108236 3.161148,2.22223 4.741328,3.333744 0.83985,1.999917 1.67948,4.000231 2.51883,6.000742 -0.17261,2.518731 -0.34546,5.037397 -0.51858,7.55649 -1.08641,1.530961 -2.17285,3.061843 -3.25967,4.593161 -1.67928,0.88891 -3.358171,1.777733 -5.037656,2.666997 -1.876864,-0.173159 -3.753286,-0.345987 -5.630325,-0.518583 -0.3702,-0.296635 -0.740569,-0.592931 -1.11125,-0.888997 -0.04913,-0.123749 -0.09851,-0.247211 -0.148167,-0.370417 -0.246406,-0.07427 -0.493622,-0.148431 -0.74083,-0.22225 -0.148005,-0.09911 -0.296069,-0.197821 -0.4445,-0.296333 0.123788,-0.222607 0.247208,-0.444765 0.370416,-0.66675 z" />
        <path
           inkscape:connector-curvature="0"
           id="path934"
           d="M 105.50238,76.145852 A 10.371654,12.297817 0 0 1 95.130729,88.443669 10.371654,12.297817 0 0 1 84.759069,76.145852 10.371654,12.297817 0 0 1 95.130729,63.848035 10.371654,12.297817 0 0 1 105.50238,76.145852 Z"
           style="fill:none;fill-opacity:1;stroke:#ffffff;stroke-width:2.0999999;stroke-linecap:butt;stroke-linejoin:round;stroke-miterlimit:4;stroke-dasharray:none;stroke-dashoffset:0;stroke-opacity:0.99545456;paint-order:normal" />
      </g>
      <g
         id="flowRoot1022"
         style="font-style:normal;font-weight:normal;font-size:40px;line-height:1.25;font-family:sans-serif;letter-spacing:0px;word-spacing:0px;fill:#dbdbe0;fill-opacity:1;stroke:#dbdbe0;stroke-opacity:1"
         transform="matrix(0.31411248,0,0,0.37748517,49.086414,40.059253)"
         aria-label="GENERIC
ARCHITECTURE
WEB SITE">
        <path
           id="path1125"
           style="font-style:normal;font-variant:normal;font-weight:bold;font-stretch:normal;font-size:74.66666412px;font-family:'Noto Serif Display';-inkscape-font-specification:'Noto Serif Display Bold';fill:#dbdbe0;fill-opacity:1;stroke:#dbdbe0;stroke-opacity:1"
           d="m 342.94337,74.689901 q -9.25866,0 -15.38133,-3.434666 -6.048,-3.434667 -9.10933,-9.557333 -2.98667,-6.197334 -2.98667,-14.485333 0,-8.064 3.136,-14.186666 3.136,-6.197334 9.33333,-9.632 6.272,-3.509333 15.38134,-3.509333 9.25866,0 13.96266,2.538666 4.704,2.464 4.704,6.122667 0,2.613333 -2.464,4.48 -2.464,1.866666 -7.168,1.866666 0,-7.541333 -2.16533,-10.901333 -2.09067,-3.36 -7.54133,-3.36 -7.616,0 -11.12534,6.346667 -3.50933,6.272 -3.50933,20.234666 0,14.037333 3.808,20.383999 3.88267,6.272 12.24533,6.272 1.41867,0 2.76267,-0.07467 1.41867,-0.149333 2.688,-0.448 V 54.903235 q 0,-2.986666 -1.344,-4.106666 -1.344,-1.194667 -3.95733,-1.194667 h -0.97067 v -0.746667 h 23.44533 v 0.746667 h -0.97066 q -2.31467,0 -3.36,1.194667 -1.04534,1.194666 -1.04534,4.405333 v 15.455999 q -4.40533,2.016 -8.88533,3.061334 -4.40533,0.970666 -9.48267,0.970666 z"
           inkscape:connector-curvature="0" />
        <path
           id="path1127"
           style="font-style:normal;font-variant:normal;font-weight:bold;font-stretch:normal;font-size:74.66666412px;font-family:'Noto Serif Display';-inkscape-font-specification:'Noto Serif Display Bold';fill:#dbdbe0;fill-opacity:1;stroke:#dbdbe0;stroke-opacity:1"
           d="m 370.90837,73.943235 v -0.746667 h 3.136 q 1.568,0 2.688,-0.746667 1.12,-0.746666 1.12,-3.733333 V 26.231236 q 0,-3.210666 -1.12,-4.032 -1.04533,-0.821333 -2.688,-0.821333 h -3.136 v -0.746667 h 41.29067 l 0.448,13.738667 h -0.74667 l -0.224,-2.538667 q -0.52266,-5.674667 -3.28533,-8.064 -2.688,-2.389333 -8.66133,-2.389333 h -10.00534 v 24.341332 h 17.696 v 0.746667 h -17.696 v 26.730666 h 12.544 q 5.97334,0 8.66134,-2.389333 2.76266,-2.389334 3.28533,-8.138667 l 0.224,-2.464 h 0.74667 l -0.52267,13.738667 z"
           inkscape:connector-curvature="0" />
        <path
           id="path1129"
           style="font-style:normal;font-variant:normal;font-weight:bold;font-stretch:normal;font-size:74.66666412px;font-family:'Noto Serif Display';-inkscape-font-specification:'Noto Serif Display Bold';fill:#dbdbe0;fill-opacity:1;stroke:#dbdbe0;stroke-opacity:1"
           d="m 419.61671,73.943235 v -0.746667 h 4.62933 q 1.568,0 2.688,-0.821333 1.12,-0.821334 1.12,-4.032 V 25.932569 q 0,-2.986666 -1.19467,-3.733333 -1.12,-0.821333 -2.61333,-0.821333 h -4.62933 v -0.746667 h 18.96533 l 26.432,40.245332 V 25.932569 q 0,-2.986666 -1.19467,-3.733333 -1.12,-0.821333 -2.61333,-0.821333 h -5.6 v -0.746667 h 19.488 v 0.746667 h -5.52534 q -1.568,0 -2.688,0.821333 -1.12,0.821334 -1.12,4.032 v 47.711999 h -4.48 L 428.80071,24.513903 v 43.829332 q 0,3.210666 1.12,4.032 1.12,0.821333 2.688,0.821333 h 6.496 v 0.746667 z"
           inkscape:connector-curvature="0" />
        <path
           id="path1131"
           style="font-style:normal;font-variant:normal;font-weight:bold;font-stretch:normal;font-size:74.66666412px;font-family:'Noto Serif Display';-inkscape-font-specification:'Noto Serif Display Bold';fill:#dbdbe0;fill-opacity:1;stroke:#dbdbe0;stroke-opacity:1"
           d="m 478.38754,73.943235 v -0.746667 h 3.136 q 1.568,0 2.688,-0.746667 1.12,-0.746666 1.12,-3.733333 V 26.231236 q 0,-3.210666 -1.12,-4.032 -1.04533,-0.821333 -2.688,-0.821333 h -3.136 v -0.746667 h 41.29067 l 0.448,13.738667 h -0.74667 l -0.224,-2.538667 q -0.52267,-5.674667 -3.28533,-8.064 -2.688,-2.389333 -8.66134,-2.389333 h -10.00533 v 24.341332 h 17.696 v 0.746667 h -17.696 v 26.730666 h 12.544 q 5.97333,0 8.66133,-2.389333 2.76267,-2.389334 3.28534,-8.138667 l 0.224,-2.464 h 0.74666 l -0.52266,13.738667 z"
           inkscape:connector-curvature="0" />
        <path
           id="path1133"
           style="font-style:normal;font-variant:normal;font-weight:bold;font-stretch:normal;font-size:74.66666412px;font-family:'Noto Serif Display';-inkscape-font-specification:'Noto Serif Display Bold';fill:#dbdbe0;fill-opacity:1;stroke:#dbdbe0;stroke-opacity:1"
           d="m 527.09587,73.943235 v -0.746667 h 3.136 q 1.49333,0 2.61333,-0.746667 1.19467,-0.746666 1.19467,-3.733333 V 25.932569 q 0,-2.986666 -1.19467,-3.733333 -1.12,-0.821333 -2.61333,-0.821333 h -3.136 v -0.746667 h 24.04267 q 10.60266,0 15.53066,3.584 4.928,3.509333 4.928,10.229333 0,3.957333 -1.568,6.72 -1.49333,2.762667 -4.032,4.554666 -2.464,1.792 -5.45066,2.837334 l 8.288,14.111999 q 2.76266,4.778667 4.33066,7.018667 1.64267,2.24 2.61333,2.912 1.04534,0.597333 2.16534,0.597333 h 0.14933 v 0.746667 h -2.464 q -4.48,0 -7.54133,-0.522667 -3.06133,-0.522667 -5.22667,-2.090667 -2.16533,-1.568 -3.88266,-4.704 l -9.632,-17.621332 h -3.50934 v 19.711999 q 0,2.986667 1.12,3.733333 1.19467,0.746667 2.688,0.746667 h 3.21067 v 0.746667 z M 545.8372,48.257902 h 4.18134 q 4.77866,0 6.86933,-3.210667 2.16533,-3.210666 2.16533,-10.229332 0,-7.018667 -2.16533,-10.229333 -2.16533,-3.210667 -7.01867,-3.210667 h -4.032 z"
           inkscape:connector-curvature="0" />
        <path
           id="path1135"
           style="font-style:normal;font-variant:normal;font-weight:bold;font-stretch:normal;font-size:74.66666412px;font-family:'Noto Serif Display';-inkscape-font-specification:'Noto Serif Display Bold';fill:#dbdbe0;fill-opacity:1;stroke:#dbdbe0;stroke-opacity:1"
           d="m 579.88754,73.943235 v -0.746667 h 3.136 q 1.64267,0 2.688,-0.821333 1.12,-0.821334 1.12,-4.032 V 26.231236 q 0,-3.210666 -1.12,-4.032 -1.04533,-0.821333 -2.688,-0.821333 h -3.136 v -0.746667 h 25.76 v 0.746667 h -3.136 q -1.64267,0 -2.76267,0.821333 -1.04533,0.821334 -1.04533,4.032 v 42.111999 q 0,3.210666 1.04533,4.032 1.12,0.821333 2.76267,0.821333 h 3.136 v 0.746667 z"
           inkscape:connector-curvature="0" />
        <path
           id="path1137"
           style="font-style:normal;font-variant:normal;font-weight:bold;font-stretch:normal;font-size:74.66666412px;font-family:'Noto Serif Display';-inkscape-font-specification:'Noto Serif Display Bold';fill:#dbdbe0;fill-opacity:1;stroke:#dbdbe0;stroke-opacity:1"
           d="m 637.63402,74.689901 q -8.66133,0 -14.41067,-3.434666 -5.74933,-3.434667 -8.58666,-9.557333 -2.83734,-6.197334 -2.83734,-14.485333 0,-8.064 2.83734,-14.186666 2.83733,-6.197334 8.58666,-9.632 5.824,-3.509333 14.63467,-3.509333 7.98933,0 12.32,2.538666 4.40533,2.538667 4.40533,6.197333 0,2.762667 -2.38933,4.629334 -2.38933,1.792 -6.944,1.792 0,-7.541334 -2.16533,-10.976 -2.16534,-3.434667 -6.944,-3.434667 -6.19734,0 -9.03467,6.346667 -2.76267,6.272 -2.76267,20.234666 0,14.037333 3.43467,20.383999 3.50933,6.272 11.2,6.272 11.05067,0 13.51467,-12.245333 2.016,0.821333 2.016,3.285333 0,2.016 -1.568,4.330667 -1.568,2.24 -5.30134,3.882666 -3.65866,1.568 -10.00533,1.568 z"
           inkscape:connector-curvature="0" />
        <path
           id="path1139"
           style="font-style:normal;font-variant:normal;font-weight:bold;font-stretch:normal;font-size:74.66666412px;font-family:'Noto Serif Display';-inkscape-font-specification:'Noto Serif Display Bold';fill:#dbdbe0;fill-opacity:1;stroke:#dbdbe0;stroke-opacity:1"
           d="m 311.65804,167.27656 v -0.74666 h 3.06133 q 2.09067,0 3.28534,-1.19467 1.26933,-1.19467 2.38933,-4.256 l 17.248,-47.11467 h 7.31733 l 16.72534,47.18934 q 1.12,3.06133 2.31466,4.256 1.26934,1.12 3.36,1.12 h 0.224 v 0.74666 h -24.64 v -0.74666 h 4.032 q 3.43467,0 3.43467,-2.38934 0,-1.19466 -0.82133,-3.808 l -4.256,-12.544 h -19.264 l -4.256,11.57334 q -0.59734,1.49333 -0.896,2.688 -0.29867,1.12 -0.29867,1.94133 0,1.41867 0.896,2.016 0.896,0.52267 2.76267,0.52267 h 5.30133 v 0.74666 z m 14.70933,-20.23466 h 18.74134 l -4.62934,-13.96267 q -0.59733,-1.792 -1.41866,-4.256 -0.74667,-2.53867 -1.49334,-5.07733 -0.672,-2.61334 -1.12,-4.48 -0.59733,1.792 -1.49333,4.256 -0.82133,2.38933 -1.71733,4.85333 -0.896,2.38933 -1.568,4.18133 z"
           inkscape:connector-curvature="0" />
        <path
           id="path1141"
           style="font-style:normal;font-variant:normal;font-weight:bold;font-stretch:normal;font-size:74.66666412px;font-family:'Noto Serif Display';-inkscape-font-specification:'Noto Serif Display Bold';fill:#dbdbe0;fill-opacity:1;stroke:#dbdbe0;stroke-opacity:1"
           d="m 369.74171,167.27656 v -0.74666 h 3.136 q 1.49333,0 2.61333,-0.74667 1.19467,-0.74667 1.19467,-3.73333 v -42.784 q 0,-2.98667 -1.19467,-3.73334 -1.12,-0.82133 -2.61333,-0.82133 h -3.136 v -0.74667 h 24.04266 q 10.60267,0 15.53067,3.584 4.928,3.50934 4.928,10.22934 0,3.95733 -1.568,6.72 -1.49334,2.76266 -4.032,4.55466 -2.464,1.792 -5.45067,2.83734 l 8.288,14.112 q 2.76267,4.77866 4.33067,7.01866 1.64266,2.24 2.61333,2.912 1.04533,0.59734 2.16533,0.59734 h 0.14934 v 0.74666 h -2.464 q -4.48,0 -7.54134,-0.52266 -3.06133,-0.52267 -5.22666,-2.09067 -2.16534,-1.568 -3.88267,-4.704 l -9.632,-17.62133 h -3.50933 v 19.712 q 0,2.98666 1.12,3.73333 1.19467,0.74667 2.688,0.74667 h 3.21066 v 0.74666 z m 18.74133,-25.68533 h 4.18133 q 4.77867,0 6.86933,-3.21067 2.16534,-3.21066 2.16534,-10.22933 0,-7.01867 -2.16534,-10.22933 -2.16533,-3.21067 -7.01866,-3.21067 h -4.032 z"
           inkscape:connector-curvature="0" />
        <path
           id="path1143"
           style="font-style:normal;font-variant:normal;font-weight:bold;font-stretch:normal;font-size:74.66666412px;font-family:'Noto Serif Display';-inkscape-font-specification:'Noto Serif Display Bold';fill:#dbdbe0;fill-opacity:1;stroke:#dbdbe0;stroke-opacity:1"
           d="m 448.92571,168.02323 q -8.66134,0 -14.41067,-3.43467 -5.74933,-3.43466 -8.58667,-9.55733 -2.83733,-6.19733 -2.83733,-14.48533 0,-8.064 2.83733,-14.18667 2.83734,-6.19733 8.58667,-9.632 5.824,-3.50933 14.63467,-3.50933 7.98933,0 12.32,2.53866 4.40533,2.53867 4.40533,6.19734 0,2.76266 -2.38933,4.62933 -2.38934,1.792 -6.944,1.792 0,-7.54133 -2.16534,-10.976 -2.16533,-3.43467 -6.944,-3.43467 -6.19733,0 -9.03466,6.34667 -2.76267,6.272 -2.76267,20.23467 0,14.03733 3.43467,20.384 3.50933,6.272 11.2,6.272 11.05066,0 13.51466,-12.24534 2.016,0.82134 2.016,3.28534 0,2.016 -1.568,4.33066 -1.568,2.24 -5.30133,3.88267 -3.65867,1.568 -10.00533,1.568 z"
           inkscape:connector-curvature="0" />
        <path
           id="path1145"
           style="font-style:normal;font-variant:normal;font-weight:bold;font-stretch:normal;font-size:74.66666412px;font-family:'Noto Serif Display';-inkscape-font-specification:'Noto Serif Display Bold';fill:#dbdbe0;fill-opacity:1;stroke:#dbdbe0;stroke-opacity:1"
           d="m 470.95004,167.27656 v -0.74666 h 3.136 q 1.64267,0 2.688,-0.82134 1.12,-0.82133 1.12,-4.032 v -42.112 q 0,-3.21066 -1.12,-4.032 -1.04533,-0.82133 -2.688,-0.82133 h -3.136 v -0.74667 h 25.76 v 0.74667 h -3.136 q -1.64267,0 -2.76267,0.82133 -1.04533,0.82134 -1.04533,4.032 v 19.488 h 19.33867 v -19.488 q 0,-3.21066 -1.12,-4.032 -1.04534,-0.82133 -2.688,-0.82133 h -3.136 v -0.74667 h 25.76 v 0.74667 h -3.136 q -1.64267,0 -2.76267,0.82133 -1.04533,0.82134 -1.04533,4.032 v 42.112 q 0,3.21067 1.04533,4.032 1.12,0.82134 2.76267,0.82134 h 3.136 v 0.74666 h -25.76 v -0.74666 h 3.136 q 1.64266,0 2.688,-0.82134 1.12,-0.82133 1.12,-4.032 v -21.87733 h -19.33867 v 21.87733 q 0,3.21067 1.04533,4.032 1.12,0.82134 2.76267,0.82134 h 3.136 v 0.74666 z"
           inkscape:connector-curvature="0" />
        <path
           id="path1147"
           style="font-style:normal;font-variant:normal;font-weight:bold;font-stretch:normal;font-size:74.66666412px;font-family:'Noto Serif Display';-inkscape-font-specification:'Noto Serif Display Bold';fill:#dbdbe0;fill-opacity:1;stroke:#dbdbe0;stroke-opacity:1"
           d="m 532.0542,167.27656 v -0.74666 h 3.136 q 1.64266,0 2.688,-0.82134 1.12,-0.82133 1.12,-4.032 v -42.112 q 0,-3.21066 -1.12,-4.032 -1.04534,-0.82133 -2.688,-0.82133 h -3.136 v -0.74667 h 25.76 v 0.74667 h -3.136 q -1.64267,0 -2.76267,0.82133 -1.04533,0.82134 -1.04533,4.032 v 42.112 q 0,3.21067 1.04533,4.032 1.12,0.82134 2.76267,0.82134 h 3.136 v 0.74666 z"
           inkscape:connector-curvature="0" />
        <path
           id="path1149"
           style="font-style:normal;font-variant:normal;font-weight:bold;font-stretch:normal;font-size:74.66666412px;font-family:'Noto Serif Display';-inkscape-font-specification:'Noto Serif Display Bold';fill:#dbdbe0;fill-opacity:1;stroke:#dbdbe0;stroke-opacity:1"
           d="m 571.35804,167.27656 v -0.74666 h 3.136 q 1.64267,0 2.688,-0.82134 1.12,-0.82133 1.12,-4.032 v -46.96533 h -4.77867 q -6.048,0 -8.81066,2.38933 -2.76267,2.38934 -3.136,8.064 l -0.224,3.28534 h -0.74667 l 0.52267,-14.48534 h 46.21866 l 0.52267,14.48534 h -0.74667 l -0.224,-3.28534 q -0.37333,-5.67466 -3.136,-8.064 -2.76266,-2.38933 -8.81066,-2.38933 h -4.77867 v 46.96533 q 0,3.21067 1.04533,4.032 1.12,0.82134 2.76267,0.82134 h 3.136 v 0.74666 z"
           inkscape:connector-curvature="0" />
        <path
           id="path1151"
           style="font-style:normal;font-variant:normal;font-weight:bold;font-stretch:normal;font-size:74.66666412px;font-family:'Noto Serif Display';-inkscape-font-specification:'Noto Serif Display Bold';fill:#dbdbe0;fill-opacity:1;stroke:#dbdbe0;stroke-opacity:1"
           d="m 610.65835,167.27656 v -0.74666 h 3.136 q 1.568,0 2.688,-0.74667 1.12,-0.74667 1.12,-3.73333 v -42.48534 q 0,-3.21066 -1.12,-4.032 -1.04533,-0.82133 -2.688,-0.82133 h -3.136 v -0.74667 h 41.29067 l 0.448,13.73867 h -0.74667 l -0.224,-2.53867 q -0.52266,-5.67466 -3.28533,-8.064 -2.688,-2.38933 -8.66133,-2.38933 h -10.00534 v 24.34133 h 17.696 v 0.74667 h -17.696 v 26.73067 h 12.544 q 5.97334,0 8.66134,-2.38934 2.76266,-2.38933 3.28533,-8.13866 l 0.224,-2.464 h 0.74667 l -0.52267,13.73866 z"
           inkscape:connector-curvature="0" />
        <path
           id="path1153"
           style="font-style:normal;font-variant:normal;font-weight:bold;font-stretch:normal;font-size:74.66666412px;font-family:'Noto Serif Display';-inkscape-font-specification:'Noto Serif Display Bold';fill:#dbdbe0;fill-opacity:1;stroke:#dbdbe0;stroke-opacity:1"
           d="m 687.21736,168.02323 q -8.66133,0 -14.41066,-3.43467 -5.74934,-3.43466 -8.58667,-9.55733 -2.83733,-6.19733 -2.83733,-14.48533 0,-8.064 2.83733,-14.18667 2.83733,-6.19733 8.58667,-9.632 5.824,-3.50933 14.63466,-3.50933 7.98934,0 12.32,2.53866 4.40534,2.53867 4.40534,6.19734 0,2.76266 -2.38934,4.62933 -2.38933,1.792 -6.944,1.792 0,-7.54133 -2.16533,-10.976 -2.16533,-3.43467 -6.944,-3.43467 -6.19733,0 -9.03467,6.34667 -2.76266,6.272 -2.76266,20.23467 0,14.03733 3.43466,20.384 3.50934,6.272 11.2,6.272 11.05067,0 13.51467,-12.24534 2.016,0.82134 2.016,3.28534 0,2.016 -1.568,4.33066 -1.568,2.24 -5.30133,3.88267 -3.65867,1.568 -10.00534,1.568 z"
           inkscape:connector-curvature="0" />
        <path
           id="path1155"
           style="font-style:normal;font-variant:normal;font-weight:bold;font-stretch:normal;font-size:74.66666412px;font-family:'Noto Serif Display';-inkscape-font-specification:'Noto Serif Display Bold';fill:#dbdbe0;fill-opacity:1;stroke:#dbdbe0;stroke-opacity:1"
           d="m 718.6497,167.27656 v -0.74666 h 3.136 q 1.64266,0 2.688,-0.82134 1.12,-0.82133 1.12,-4.032 v -46.96533 h -4.77867 q -6.048,0 -8.81067,2.38933 -2.76266,2.38934 -3.136,8.064 l -0.224,3.28534 h -0.74666 l 0.52266,-14.48534 h 46.21867 l 0.52267,14.48534 h -0.74667 l -0.224,-3.28534 q -0.37333,-5.67466 -3.136,-8.064 -2.76267,-2.38933 -8.81067,-2.38933 h -4.77866 v 46.96533 q 0,3.21067 1.04533,4.032 1.12,0.82134 2.76267,0.82134 h 3.136 v 0.74666 z"
           inkscape:connector-curvature="0" />
        <path
           id="path1157"
           style="font-style:normal;font-variant:normal;font-weight:bold;font-stretch:normal;font-size:74.66666412px;font-family:'Noto Serif Display';-inkscape-font-specification:'Noto Serif Display Bold';fill:#dbdbe0;fill-opacity:1;stroke:#dbdbe0;stroke-opacity:1"
           d="m 784.75537,168.02323 q -9.78133,0 -15.232,-3.88267 -5.45066,-3.95733 -5.45066,-13.14133 V 119.2659 q 0,-2.98667 -1.19467,-3.73334 -1.12,-0.82133 -2.61333,-0.82133 h -3.21067 v -0.74667 h 25.76 v 0.74667 h -3.136 q -1.568,0 -2.688,0.82133 -1.12,0.82134 -1.12,4.032 v 36.21334 q 0,6.272 2.98667,8.736 3.06133,2.38933 8.13866,2.38933 7.09334,0 10.976,-3.95733 3.95734,-4.032 3.95734,-11.05067 V 119.2659 q 0,-2.98667 -1.12,-3.73334 -1.12,-0.82133 -2.688,-0.82133 h -4.62934 v -0.74667 h 16.94934 v 0.74667 h -3.95734 q -1.568,0 -2.688,0.82133 -1.12,0.82134 -1.12,4.032 v 32.33067 q 0,7.98933 -4.62933,12.096 -4.62933,4.032 -13.29067,4.032 z"
           inkscape:connector-curvature="0" />
        <path
           id="path1159"
           style="font-style:normal;font-variant:normal;font-weight:bold;font-stretch:normal;font-size:74.66666412px;font-family:'Noto Serif Display';-inkscape-font-specification:'Noto Serif Display Bold';fill:#dbdbe0;fill-opacity:1;stroke:#dbdbe0;stroke-opacity:1"
           d="m 813.65835,167.27656 v -0.74666 h 3.136 q 1.49334,0 2.61334,-0.74667 1.19466,-0.74667 1.19466,-3.73333 v -42.784 q 0,-2.98667 -1.19466,-3.73334 -1.12,-0.82133 -2.61334,-0.82133 h -3.136 v -0.74667 h 24.04267 q 10.60267,0 15.53067,3.584 4.928,3.50934 4.928,10.22934 0,3.95733 -1.568,6.72 -1.49334,2.76266 -4.032,4.55466 -2.464,1.792 -5.45067,2.83734 l 8.288,14.112 q 2.76267,4.77866 4.33067,7.01866 1.64266,2.24 2.61333,2.912 1.04533,0.59734 2.16533,0.59734 h 0.14934 v 0.74666 h -2.464 q -4.48,0 -7.54134,-0.52266 -3.06133,-0.52267 -5.22666,-2.09067 -2.16534,-1.568 -3.88267,-4.704 l -9.632,-17.62133 h -3.50933 v 19.712 q 0,2.98666 1.12,3.73333 1.19466,0.74667 2.688,0.74667 h 3.21066 v 0.74666 z m 18.74134,-25.68533 h 4.18133 q 4.77867,0 6.86933,-3.21067 2.16534,-3.21066 2.16534,-10.22933 0,-7.01867 -2.16534,-10.22933 -2.16533,-3.21067 -7.01866,-3.21067 h -4.032 z"
           inkscape:connector-curvature="0" />
        <path
           id="path1161"
           style="font-style:normal;font-variant:normal;font-weight:bold;font-stretch:normal;font-size:74.66666412px;font-family:'Noto Serif Display';-inkscape-font-specification:'Noto Serif Display Bold';fill:#dbdbe0;fill-opacity:1;stroke:#dbdbe0;stroke-opacity:1"
           d="m 866.45004,167.27656 v -0.74666 h 3.136 q 1.568,0 2.688,-0.74667 1.12,-0.74667 1.12,-3.73333 v -42.48534 q 0,-3.21066 -1.12,-4.032 -1.04533,-0.82133 -2.688,-0.82133 h -3.136 v -0.74667 h 41.29067 l 0.448,13.73867 h -0.74667 l -0.224,-2.53867 q -0.52267,-5.67466 -3.28533,-8.064 -2.688,-2.38933 -8.66134,-2.38933 h -10.00533 v 24.34133 h 17.696 v 0.74667 h -17.696 v 26.73067 h 12.544 q 5.97333,0 8.66133,-2.38934 2.76267,-2.38933 3.28534,-8.13866 l 0.224,-2.464 h 0.74666 l -0.52266,13.73866 z"
           inkscape:connector-curvature="0" />
        <path
           id="path1163"
           style="font-style:normal;font-variant:normal;font-weight:bold;font-stretch:normal;font-size:74.66666412px;font-family:'Noto Serif Display';-inkscape-font-specification:'Noto Serif Display Bold';fill:#dbdbe0;fill-opacity:1;stroke:#dbdbe0;stroke-opacity:1"
           d="m 331.29537,260.60989 -14.63466,-48.608 q -0.74667,-2.31466 -1.94134,-3.136 -1.12,-0.82133 -3.21066,-0.82133 h -0.14934 v -0.74667 h 24.93867 v 0.74667 h -2.688 q -4.48,0 -4.48,3.584 0,0.59733 0.224,1.792 0.224,1.19467 0.52267,2.24 l 5.97333,20.45867 q 1.344,4.62933 2.464,9.18399 1.19467,4.55467 2.61333,10.528 0.37334,-1.86666 0.896,-3.95733 0.52267,-2.09067 1.12,-4.55467 l 9.632,-39.49866 h 5.376 l 9.55734,28.52267 q 0.896,2.61333 1.86666,6.12266 1.04534,3.50933 2.016,6.944 0.97067,3.43467 1.568,5.6 0.59734,-2.912 1.344,-6.34667 0.82134,-3.50933 1.568,-6.72 0.74667,-3.21066 1.26934,-5.22666 l 4.928,-21.13067 q 0.29866,-1.19466 0.448,-2.09066 0.14933,-0.97067 0.14933,-1.792 0,-2.016 -1.19467,-2.83734 -1.12,-0.82133 -3.65866,-0.82133 h -4.032 v -0.74667 h 17.248 v 0.74667 h -2.09067 q -2.464,0 -3.73333,1.26933 -1.26934,1.26934 -2.016,4.62934 l -10.82667,46.66666 h -8.512 l -13.29067,-41.29066 -10.08,41.29066 z"
           inkscape:connector-curvature="0" />
        <path
           id="path1165"
           style="font-style:normal;font-variant:normal;font-weight:bold;font-stretch:normal;font-size:74.66666412px;font-family:'Noto Serif Display';-inkscape-font-specification:'Noto Serif Display Bold';fill:#dbdbe0;fill-opacity:1;stroke:#dbdbe0;stroke-opacity:1"
           d="m 393.07504,260.60989 v -0.74667 h 3.136 q 1.568,0 2.688,-0.74666 1.12,-0.74667 1.12,-3.73334 v -42.48533 q 0,-3.21066 -1.12,-4.032 -1.04533,-0.82133 -2.688,-0.82133 h -3.136 v -0.74667 h 41.29067 l 0.448,13.73867 h -0.74667 l -0.224,-2.53867 q -0.52267,-5.67466 -3.28533,-8.064 -2.688,-2.38933 -8.66134,-2.38933 h -10.00533 v 24.34133 h 17.696 v 0.74667 h -17.696 v 26.73066 h 12.544 q 5.97333,0 8.66133,-2.38933 2.76267,-2.38933 3.28534,-8.13867 l 0.224,-2.464 h 0.74666 l -0.52266,13.73867 z"
           inkscape:connector-curvature="0" />
        <path
           id="path1167"
           style="font-style:normal;font-variant:normal;font-weight:bold;font-stretch:normal;font-size:74.66666412px;font-family:'Noto Serif Display';-inkscape-font-specification:'Noto Serif Display Bold';fill:#dbdbe0;fill-opacity:1;stroke:#dbdbe0;stroke-opacity:1"
           d="m 441.78337,260.60989 v -0.74667 h 3.06133 q 1.64267,0 2.76267,-0.82133 1.12,-0.82133 1.12,-4.032 v -42.18666 q 0,-2.98667 -1.19467,-3.88267 -1.12,-0.896 -2.688,-0.896 h -3.06133 v -0.74667 h 21.80267 q 10.60266,0 15.97866,3.36 5.376,3.36 5.376,9.78134 0,5.74933 -4.18133,8.58666 -4.10667,2.83734 -11.94667,3.28534 v 0.14933 q 8.81067,0.14933 13.58934,3.584 4.77866,3.43467 4.77866,10.22933 0,14.336 -21.35466,14.336 z m 18.74133,-28.29866 h 2.83734 q 4.85333,0 6.944,-2.76267 2.09066,-2.83733 2.09066,-9.408 0,-6.57067 -2.09066,-9.33333 -2.09067,-2.76267 -7.09334,-2.76267 h -2.688 z m 0,27.55199 h 4.928 q 5.00267,0 7.09334,-3.06133 2.09066,-3.06133 2.09066,-10.37867 0,-7.24266 -2.09066,-10.30399 -2.09067,-3.06134 -6.944,-3.06134 h -5.07734 z"
           inkscape:connector-curvature="0" />
        <path
           id="path1169"
           style="font-style:normal;font-variant:normal;font-weight:bold;font-stretch:normal;font-size:74.66666412px;font-family:'Noto Serif Display';-inkscape-font-specification:'Noto Serif Display Bold';fill:#dbdbe0;fill-opacity:1;stroke:#dbdbe0;stroke-opacity:1"
           d="m 525.6702,261.35656 q -6.19733,0 -9.856,-1.568 -3.65866,-1.64267 -5.30133,-4.10667 -1.64267,-2.464 -1.64267,-5.00267 0,-2.464 1.19467,-3.88266 1.19467,-1.49334 3.136,-2.16534 1.94133,-0.672 4.10667,-0.672 0,6.86934 1.26933,10.45334 1.344,3.584 3.584,4.928 2.24,1.26933 5.152,1.26933 4.48,0 7.31733,-2.38933 2.912,-2.38934 2.912,-7.168 0,-3.43467 -1.568,-5.74934 -1.568,-2.31466 -4.55466,-4.032 -2.912,-1.71733 -7.09334,-3.43466 -5.22666,-2.16533 -8.288,-4.48 -3.06133,-2.38933 -4.40533,-5.22667 -1.26933,-2.912 -1.26933,-6.57066 0,-6.79467 5.07733,-10.90134 5.152,-4.10666 14.18667,-4.10666 7.09333,0 10.976,2.53866 3.95733,2.464 3.95733,6.048 0,2.688 -2.31467,4.48 -2.31466,1.792 -6.86933,1.792 0,-7.24266 -1.86667,-10.60266 -1.792,-3.36 -6.19733,-3.36 -1.94133,0 -3.88267,0.74666 -1.94133,0.74667 -3.21066,2.61334 -1.26934,1.86666 -1.26934,5.30133 0,2.83733 1.26934,5.07733 1.26933,2.16534 4.18133,4.10667 2.912,1.86667 7.91467,3.88267 7.76533,3.136 11.05066,6.79466 3.28534,3.584 3.28534,9.03467 0,4.85333 -2.464,8.512 -2.464,3.65866 -7.168,5.74933 -4.62934,2.09067 -11.34934,2.09067 z"
           inkscape:connector-curvature="0" />
        <path
           id="path1171"
           style="font-style:normal;font-variant:normal;font-weight:bold;font-stretch:normal;font-size:74.66666412px;font-family:'Noto Serif Display';-inkscape-font-specification:'Noto Serif Display Bold';fill:#dbdbe0;fill-opacity:1;stroke:#dbdbe0;stroke-opacity:1"
           d="m 552.47087,260.60989 v -0.74667 h 3.136 q 1.64267,0 2.688,-0.82133 1.12,-0.82133 1.12,-4.032 v -42.112 q 0,-3.21066 -1.12,-4.032 -1.04533,-0.82133 -2.688,-0.82133 h -3.136 v -0.74667 h 25.76 v 0.74667 h -3.136 q -1.64267,0 -2.76267,0.82133 -1.04533,0.82134 -1.04533,4.032 v 42.112 q 0,3.21067 1.04533,4.032 1.12,0.82133 2.76267,0.82133 h 3.136 v 0.74667 z"
           inkscape:connector-curvature="0" />
        <path
           id="path1173"
           style="font-style:normal;font-variant:normal;font-weight:bold;font-stretch:normal;font-size:74.66666412px;font-family:'Noto Serif Display';-inkscape-font-specification:'Noto Serif Display Bold';fill:#dbdbe0;fill-opacity:1;stroke:#dbdbe0;stroke-opacity:1"
           d="m 591.7747,260.60989 v -0.74667 h 3.136 q 1.64266,0 2.688,-0.82133 1.12,-0.82133 1.12,-4.032 v -46.96533 h -4.77867 q -6.048,0 -8.81067,2.38933 -2.76266,2.38934 -3.136,8.064 l -0.224,3.28534 h -0.74666 l 0.52266,-14.48534 h 46.21867 l 0.52267,14.48534 h -0.74667 l -0.224,-3.28534 q -0.37333,-5.67466 -3.136,-8.064 -2.76267,-2.38933 -8.81067,-2.38933 h -4.77866 v 46.96533 q 0,3.21067 1.04533,4.032 1.12,0.82133 2.76267,0.82133 h 3.136 v 0.74667 z"
           inkscape:connector-curvature="0" />
        <path
           id="path1175"
           style="font-style:normal;font-variant:normal;font-weight:bold;font-stretch:normal;font-size:74.66666412px;font-family:'Noto Serif Display';-inkscape-font-specification:'Noto Serif Display Bold';fill:#dbdbe0;fill-opacity:1;stroke:#dbdbe0;stroke-opacity:1"
           d="m 631.07504,260.60989 v -0.74667 h 3.136 q 1.568,0 2.688,-0.74666 1.12,-0.74667 1.12,-3.73334 v -42.48533 q 0,-3.21066 -1.12,-4.032 -1.04533,-0.82133 -2.688,-0.82133 h -3.136 v -0.74667 h 41.29067 l 0.448,13.73867 h -0.74667 l -0.224,-2.53867 q -0.52267,-5.67466 -3.28533,-8.064 -2.688,-2.38933 -8.66134,-2.38933 h -10.00533 v 24.34133 h 17.696 v 0.74667 h -17.696 v 26.73066 h 12.544 q 5.97333,0 8.66133,-2.38933 2.76267,-2.38933 3.28534,-8.13867 l 0.224,-2.464 h 0.74666 l -0.52266,13.73867 z"
           inkscape:connector-curvature="0" />
      </g>
      <g
         id="flowRoot972"
         style="font-style:normal;font-weight:normal;font-size:40px;line-height:1.25;font-family:sans-serif;letter-spacing:0px;word-spacing:0px;fill:#ffffff;fill-opacity:1;stroke:#ffffff;stroke-width:0.99900097;stroke-miterlimit:4;stroke-dasharray:none;stroke-opacity:1"
         transform="matrix(0.31411248,0,0,0.37748517,48.049249,39.281379)"
         aria-label="GENERIC
ARCHITECTURE
WEB SITE">
        <path
           id="path1072"
           style="font-style:normal;font-variant:normal;font-weight:bold;font-stretch:normal;font-size:74.66666412px;font-family:'Noto Serif Display';-inkscape-font-specification:'Noto Serif Display Bold';fill:#ffffff;fill-opacity:1;stroke:#ffffff;stroke-width:0.99900097;stroke-miterlimit:4;stroke-dasharray:none;stroke-opacity:1"
           d="m 342.94337,74.689901 q -9.25866,0 -15.38133,-3.434666 -6.048,-3.434667 -9.10933,-9.557333 -2.98667,-6.197334 -2.98667,-14.485333 0,-8.064 3.136,-14.186666 3.136,-6.197334 9.33333,-9.632 6.272,-3.509333 15.38134,-3.509333 9.25866,0 13.96266,2.538666 4.704,2.464 4.704,6.122667 0,2.613333 -2.464,4.48 -2.464,1.866666 -7.168,1.866666 0,-7.541333 -2.16533,-10.901333 -2.09067,-3.36 -7.54133,-3.36 -7.616,0 -11.12534,6.346667 -3.50933,6.272 -3.50933,20.234666 0,14.037333 3.808,20.383999 3.88267,6.272 12.24533,6.272 1.41867,0 2.76267,-0.07467 1.41867,-0.149333 2.688,-0.448 V 54.903235 q 0,-2.986666 -1.344,-4.106666 -1.344,-1.194667 -3.95733,-1.194667 h -0.97067 v -0.746667 h 23.44533 v 0.746667 h -0.97066 q -2.31467,0 -3.36,1.194667 -1.04534,1.194666 -1.04534,4.405333 v 15.455999 q -4.40533,2.016 -8.88533,3.061334 -4.40533,0.970666 -9.48267,0.970666 z"
           inkscape:connector-curvature="0" />
        <path
           id="path1074"
           style="font-style:normal;font-variant:normal;font-weight:bold;font-stretch:normal;font-size:74.66666412px;font-family:'Noto Serif Display';-inkscape-font-specification:'Noto Serif Display Bold';fill:#ffffff;fill-opacity:1;stroke:#ffffff;stroke-width:0.99900097;stroke-miterlimit:4;stroke-dasharray:none;stroke-opacity:1"
           d="m 370.90837,73.943235 v -0.746667 h 3.136 q 1.568,0 2.688,-0.746667 1.12,-0.746666 1.12,-3.733333 V 26.231236 q 0,-3.210666 -1.12,-4.032 -1.04533,-0.821333 -2.688,-0.821333 h -3.136 v -0.746667 h 41.29067 l 0.448,13.738667 h -0.74667 l -0.224,-2.538667 q -0.52266,-5.674667 -3.28533,-8.064 -2.688,-2.389333 -8.66133,-2.389333 h -10.00534 v 24.341332 h 17.696 v 0.746667 h -17.696 v 26.730666 h 12.544 q 5.97334,0 8.66134,-2.389333 2.76266,-2.389334 3.28533,-8.138667 l 0.224,-2.464 h 0.74667 l -0.52267,13.738667 z"
           inkscape:connector-curvature="0" />
        <path
           id="path1076"
           style="font-style:normal;font-variant:normal;font-weight:bold;font-stretch:normal;font-size:74.66666412px;font-family:'Noto Serif Display';-inkscape-font-specification:'Noto Serif Display Bold';fill:#ffffff;fill-opacity:1;stroke:#ffffff;stroke-width:0.99900097;stroke-miterlimit:4;stroke-dasharray:none;stroke-opacity:1"
           d="m 419.61671,73.943235 v -0.746667 h 4.62933 q 1.568,0 2.688,-0.821333 1.12,-0.821334 1.12,-4.032 V 25.932569 q 0,-2.986666 -1.19467,-3.733333 -1.12,-0.821333 -2.61333,-0.821333 h -4.62933 v -0.746667 h 18.96533 l 26.432,40.245332 V 25.932569 q 0,-2.986666 -1.19467,-3.733333 -1.12,-0.821333 -2.61333,-0.821333 h -5.6 v -0.746667 h 19.488 v 0.746667 h -5.52534 q -1.568,0 -2.688,0.821333 -1.12,0.821334 -1.12,4.032 v 47.711999 h -4.48 L 428.80071,24.513903 v 43.829332 q 0,3.210666 1.12,4.032 1.12,0.821333 2.688,0.821333 h 6.496 v 0.746667 z"
           inkscape:connector-curvature="0" />
        <path
           id="path1078"
           style="font-style:normal;font-variant:normal;font-weight:bold;font-stretch:normal;font-size:74.66666412px;font-family:'Noto Serif Display';-inkscape-font-specification:'Noto Serif Display Bold';fill:#ffffff;fill-opacity:1;stroke:#ffffff;stroke-width:0.99900097;stroke-miterlimit:4;stroke-dasharray:none;stroke-opacity:1"
           d="m 478.38754,73.943235 v -0.746667 h 3.136 q 1.568,0 2.688,-0.746667 1.12,-0.746666 1.12,-3.733333 V 26.231236 q 0,-3.210666 -1.12,-4.032 -1.04533,-0.821333 -2.688,-0.821333 h -3.136 v -0.746667 h 41.29067 l 0.448,13.738667 h -0.74667 l -0.224,-2.538667 q -0.52267,-5.674667 -3.28533,-8.064 -2.688,-2.389333 -8.66134,-2.389333 h -10.00533 v 24.341332 h 17.696 v 0.746667 h -17.696 v 26.730666 h 12.544 q 5.97333,0 8.66133,-2.389333 2.76267,-2.389334 3.28534,-8.138667 l 0.224,-2.464 h 0.74666 l -0.52266,13.738667 z"
           inkscape:connector-curvature="0" />
        <path
           id="path1080"
           style="font-style:normal;font-variant:normal;font-weight:bold;font-stretch:normal;font-size:74.66666412px;font-family:'Noto Serif Display';-inkscape-font-specification:'Noto Serif Display Bold';fill:#ffffff;fill-opacity:1;stroke:#ffffff;stroke-width:0.99900097;stroke-miterlimit:4;stroke-dasharray:none;stroke-opacity:1"
           d="m 527.09587,73.943235 v -0.746667 h 3.136 q 1.49333,0 2.61333,-0.746667 1.19467,-0.746666 1.19467,-3.733333 V 25.932569 q 0,-2.986666 -1.19467,-3.733333 -1.12,-0.821333 -2.61333,-0.821333 h -3.136 v -0.746667 h 24.04267 q 10.60266,0 15.53066,3.584 4.928,3.509333 4.928,10.229333 0,3.957333 -1.568,6.72 -1.49333,2.762667 -4.032,4.554666 -2.464,1.792 -5.45066,2.837334 l 8.288,14.111999 q 2.76266,4.778667 4.33066,7.018667 1.64267,2.24 2.61333,2.912 1.04534,0.597333 2.16534,0.597333 h 0.14933 v 0.746667 h -2.464 q -4.48,0 -7.54133,-0.522667 -3.06133,-0.522667 -5.22667,-2.090667 -2.16533,-1.568 -3.88266,-4.704 l -9.632,-17.621332 h -3.50934 v 19.711999 q 0,2.986667 1.12,3.733333 1.19467,0.746667 2.688,0.746667 h 3.21067 v 0.746667 z M 545.8372,48.257902 h 4.18134 q 4.77866,0 6.86933,-3.210667 2.16533,-3.210666 2.16533,-10.229332 0,-7.018667 -2.16533,-10.229333 -2.16533,-3.210667 -7.01867,-3.210667 h -4.032 z"
           inkscape:connector-curvature="0" />
        <path
           id="path1082"
           style="font-style:normal;font-variant:normal;font-weight:bold;font-stretch:normal;font-size:74.66666412px;font-family:'Noto Serif Display';-inkscape-font-specification:'Noto Serif Display Bold';fill:#ffffff;fill-opacity:1;stroke:#ffffff;stroke-width:0.99900097;stroke-miterlimit:4;stroke-dasharray:none;stroke-opacity:1"
           d="m 579.88754,73.943235 v -0.746667 h 3.136 q 1.64267,0 2.688,-0.821333 1.12,-0.821334 1.12,-4.032 V 26.231236 q 0,-3.210666 -1.12,-4.032 -1.04533,-0.821333 -2.688,-0.821333 h -3.136 v -0.746667 h 25.76 v 0.746667 h -3.136 q -1.64267,0 -2.76267,0.821333 -1.04533,0.821334 -1.04533,4.032 v 42.111999 q 0,3.210666 1.04533,4.032 1.12,0.821333 2.76267,0.821333 h 3.136 v 0.746667 z"
           inkscape:connector-curvature="0" />
        <path
           id="path1084"
           style="font-style:normal;font-variant:normal;font-weight:bold;font-stretch:normal;font-size:74.66666412px;font-family:'Noto Serif Display';-inkscape-font-specification:'Noto Serif Display Bold';fill:#ffffff;fill-opacity:1;stroke:#ffffff;stroke-width:0.99900097;stroke-miterlimit:4;stroke-dasharray:none;stroke-opacity:1"
           d="m 637.63402,74.689901 q -8.66133,0 -14.41067,-3.434666 -5.74933,-3.434667 -8.58666,-9.557333 -2.83734,-6.197334 -2.83734,-14.485333 0,-8.064 2.83734,-14.186666 2.83733,-6.197334 8.58666,-9.632 5.824,-3.509333 14.63467,-3.509333 7.98933,0 12.32,2.538666 4.40533,2.538667 4.40533,6.197333 0,2.762667 -2.38933,4.629334 -2.38933,1.792 -6.944,1.792 0,-7.541334 -2.16533,-10.976 -2.16534,-3.434667 -6.944,-3.434667 -6.19734,0 -9.03467,6.346667 -2.76267,6.272 -2.76267,20.234666 0,14.037333 3.43467,20.383999 3.50933,6.272 11.2,6.272 11.05067,0 13.51467,-12.245333 2.016,0.821333 2.016,3.285333 0,2.016 -1.568,4.330667 -1.568,2.24 -5.30134,3.882666 -3.65866,1.568 -10.00533,1.568 z"
           inkscape:connector-curvature="0" />
        <path
           id="path1086"
           style="font-style:normal;font-variant:normal;font-weight:bold;font-stretch:normal;font-size:74.66666412px;font-family:'Noto Serif Display';-inkscape-font-specification:'Noto Serif Display Bold';fill:#ffffff;fill-opacity:1;stroke:#ffffff;stroke-width:0.99900097;stroke-miterlimit:4;stroke-dasharray:none;stroke-opacity:1"
           d="m 311.65804,167.27656 v -0.74666 h 3.06133 q 2.09067,0 3.28534,-1.19467 1.26933,-1.19467 2.38933,-4.256 l 17.248,-47.11467 h 7.31733 l 16.72534,47.18934 q 1.12,3.06133 2.31466,4.256 1.26934,1.12 3.36,1.12 h 0.224 v 0.74666 h -24.64 v -0.74666 h 4.032 q 3.43467,0 3.43467,-2.38934 0,-1.19466 -0.82133,-3.808 l -4.256,-12.544 h -19.264 l -4.256,11.57334 q -0.59734,1.49333 -0.896,2.688 -0.29867,1.12 -0.29867,1.94133 0,1.41867 0.896,2.016 0.896,0.52267 2.76267,0.52267 h 5.30133 v 0.74666 z m 14.70933,-20.23466 h 18.74134 l -4.62934,-13.96267 q -0.59733,-1.792 -1.41866,-4.256 -0.74667,-2.53867 -1.49334,-5.07733 -0.672,-2.61334 -1.12,-4.48 -0.59733,1.792 -1.49333,4.256 -0.82133,2.38933 -1.71733,4.85333 -0.896,2.38933 -1.568,4.18133 z"
           inkscape:connector-curvature="0" />
        <path
           id="path1088"
           style="font-style:normal;font-variant:normal;font-weight:bold;font-stretch:normal;font-size:74.66666412px;font-family:'Noto Serif Display';-inkscape-font-specification:'Noto Serif Display Bold';fill:#ffffff;fill-opacity:1;stroke:#ffffff;stroke-width:0.99900097;stroke-miterlimit:4;stroke-dasharray:none;stroke-opacity:1"
           d="m 369.74171,167.27656 v -0.74666 h 3.136 q 1.49333,0 2.61333,-0.74667 1.19467,-0.74667 1.19467,-3.73333 v -42.784 q 0,-2.98667 -1.19467,-3.73334 -1.12,-0.82133 -2.61333,-0.82133 h -3.136 v -0.74667 h 24.04266 q 10.60267,0 15.53067,3.584 4.928,3.50934 4.928,10.22934 0,3.95733 -1.568,6.72 -1.49334,2.76266 -4.032,4.55466 -2.464,1.792 -5.45067,2.83734 l 8.288,14.112 q 2.76267,4.77866 4.33067,7.01866 1.64266,2.24 2.61333,2.912 1.04533,0.59734 2.16533,0.59734 h 0.14934 v 0.74666 h -2.464 q -4.48,0 -7.54134,-0.52266 -3.06133,-0.52267 -5.22666,-2.09067 -2.16534,-1.568 -3.88267,-4.704 l -9.632,-17.62133 h -3.50933 v 19.712 q 0,2.98666 1.12,3.73333 1.19467,0.74667 2.688,0.74667 h 3.21066 v 0.74666 z m 18.74133,-25.68533 h 4.18133 q 4.77867,0 6.86933,-3.21067 2.16534,-3.21066 2.16534,-10.22933 0,-7.01867 -2.16534,-10.22933 -2.16533,-3.21067 -7.01866,-3.21067 h -4.032 z"
           inkscape:connector-curvature="0" />
        <path
           id="path1090"
           style="font-style:normal;font-variant:normal;font-weight:bold;font-stretch:normal;font-size:74.66666412px;font-family:'Noto Serif Display';-inkscape-font-specification:'Noto Serif Display Bold';fill:#ffffff;fill-opacity:1;stroke:#ffffff;stroke-width:0.99900097;stroke-miterlimit:4;stroke-dasharray:none;stroke-opacity:1"
           d="m 448.92571,168.02323 q -8.66134,0 -14.41067,-3.43467 -5.74933,-3.43466 -8.58667,-9.55733 -2.83733,-6.19733 -2.83733,-14.48533 0,-8.064 2.83733,-14.18667 2.83734,-6.19733 8.58667,-9.632 5.824,-3.50933 14.63467,-3.50933 7.98933,0 12.32,2.53866 4.40533,2.53867 4.40533,6.19734 0,2.76266 -2.38933,4.62933 -2.38934,1.792 -6.944,1.792 0,-7.54133 -2.16534,-10.976 -2.16533,-3.43467 -6.944,-3.43467 -6.19733,0 -9.03466,6.34667 -2.76267,6.272 -2.76267,20.23467 0,14.03733 3.43467,20.384 3.50933,6.272 11.2,6.272 11.05066,0 13.51466,-12.24534 2.016,0.82134 2.016,3.28534 0,2.016 -1.568,4.33066 -1.568,2.24 -5.30133,3.88267 -3.65867,1.568 -10.00533,1.568 z"
           inkscape:connector-curvature="0" />
        <path
           id="path1092"
           style="font-style:normal;font-variant:normal;font-weight:bold;font-stretch:normal;font-size:74.66666412px;font-family:'Noto Serif Display';-inkscape-font-specification:'Noto Serif Display Bold';fill:#ffffff;fill-opacity:1;stroke:#ffffff;stroke-width:0.99900097;stroke-miterlimit:4;stroke-dasharray:none;stroke-opacity:1"
           d="m 470.95004,167.27656 v -0.74666 h 3.136 q 1.64267,0 2.688,-0.82134 1.12,-0.82133 1.12,-4.032 v -42.112 q 0,-3.21066 -1.12,-4.032 -1.04533,-0.82133 -2.688,-0.82133 h -3.136 v -0.74667 h 25.76 v 0.74667 h -3.136 q -1.64267,0 -2.76267,0.82133 -1.04533,0.82134 -1.04533,4.032 v 19.488 h 19.33867 v -19.488 q 0,-3.21066 -1.12,-4.032 -1.04534,-0.82133 -2.688,-0.82133 h -3.136 v -0.74667 h 25.76 v 0.74667 h -3.136 q -1.64267,0 -2.76267,0.82133 -1.04533,0.82134 -1.04533,4.032 v 42.112 q 0,3.21067 1.04533,4.032 1.12,0.82134 2.76267,0.82134 h 3.136 v 0.74666 h -25.76 v -0.74666 h 3.136 q 1.64266,0 2.688,-0.82134 1.12,-0.82133 1.12,-4.032 v -21.87733 h -19.33867 v 21.87733 q 0,3.21067 1.04533,4.032 1.12,0.82134 2.76267,0.82134 h 3.136 v 0.74666 z"
           inkscape:connector-curvature="0" />
        <path
           id="path1094"
           style="font-style:normal;font-variant:normal;font-weight:bold;font-stretch:normal;font-size:74.66666412px;font-family:'Noto Serif Display';-inkscape-font-specification:'Noto Serif Display Bold';fill:#ffffff;fill-opacity:1;stroke:#ffffff;stroke-width:0.99900097;stroke-miterlimit:4;stroke-dasharray:none;stroke-opacity:1"
           d="m 532.0542,167.27656 v -0.74666 h 3.136 q 1.64266,0 2.688,-0.82134 1.12,-0.82133 1.12,-4.032 v -42.112 q 0,-3.21066 -1.12,-4.032 -1.04534,-0.82133 -2.688,-0.82133 h -3.136 v -0.74667 h 25.76 v 0.74667 h -3.136 q -1.64267,0 -2.76267,0.82133 -1.04533,0.82134 -1.04533,4.032 v 42.112 q 0,3.21067 1.04533,4.032 1.12,0.82134 2.76267,0.82134 h 3.136 v 0.74666 z"
           inkscape:connector-curvature="0" />
        <path
           id="path1096"
           style="font-style:normal;font-variant:normal;font-weight:bold;font-stretch:normal;font-size:74.66666412px;font-family:'Noto Serif Display';-inkscape-font-specification:'Noto Serif Display Bold';fill:#ffffff;fill-opacity:1;stroke:#ffffff;stroke-width:0.99900097;stroke-miterlimit:4;stroke-dasharray:none;stroke-opacity:1"
           d="m 571.35804,167.27656 v -0.74666 h 3.136 q 1.64267,0 2.688,-0.82134 1.12,-0.82133 1.12,-4.032 v -46.96533 h -4.77867 q -6.048,0 -8.81066,2.38933 -2.76267,2.38934 -3.136,8.064 l -0.224,3.28534 h -0.74667 l 0.52267,-14.48534 h 46.21866 l 0.52267,14.48534 h -0.74667 l -0.224,-3.28534 q -0.37333,-5.67466 -3.136,-8.064 -2.76266,-2.38933 -8.81066,-2.38933 h -4.77867 v 46.96533 q 0,3.21067 1.04533,4.032 1.12,0.82134 2.76267,0.82134 h 3.136 v 0.74666 z"
           inkscape:connector-curvature="0" />
        <path
           id="path1098"
           style="font-style:normal;font-variant:normal;font-weight:bold;font-stretch:normal;font-size:74.66666412px;font-family:'Noto Serif Display';-inkscape-font-specification:'Noto Serif Display Bold';fill:#ffffff;fill-opacity:1;stroke:#ffffff;stroke-width:0.99900097;stroke-miterlimit:4;stroke-dasharray:none;stroke-opacity:1"
           d="m 610.65835,167.27656 v -0.74666 h 3.136 q 1.568,0 2.688,-0.74667 1.12,-0.74667 1.12,-3.73333 v -42.48534 q 0,-3.21066 -1.12,-4.032 -1.04533,-0.82133 -2.688,-0.82133 h -3.136 v -0.74667 h 41.29067 l 0.448,13.73867 h -0.74667 l -0.224,-2.53867 q -0.52266,-5.67466 -3.28533,-8.064 -2.688,-2.38933 -8.66133,-2.38933 h -10.00534 v 24.34133 h 17.696 v 0.74667 h -17.696 v 26.73067 h 12.544 q 5.97334,0 8.66134,-2.38934 2.76266,-2.38933 3.28533,-8.13866 l 0.224,-2.464 h 0.74667 l -0.52267,13.73866 z"
           inkscape:connector-curvature="0" />
        <path
           id="path1100"
           style="font-style:normal;font-variant:normal;font-weight:bold;font-stretch:normal;font-size:74.66666412px;font-family:'Noto Serif Display';-inkscape-font-specification:'Noto Serif Display Bold';fill:#ffffff;fill-opacity:1;stroke:#ffffff;stroke-width:0.99900097;stroke-miterlimit:4;stroke-dasharray:none;stroke-opacity:1"
           d="m 687.21736,168.02323 q -8.66133,0 -14.41066,-3.43467 -5.74934,-3.43466 -8.58667,-9.55733 -2.83733,-6.19733 -2.83733,-14.48533 0,-8.064 2.83733,-14.18667 2.83733,-6.19733 8.58667,-9.632 5.824,-3.50933 14.63466,-3.50933 7.98934,0 12.32,2.53866 4.40534,2.53867 4.40534,6.19734 0,2.76266 -2.38934,4.62933 -2.38933,1.792 -6.944,1.792 0,-7.54133 -2.16533,-10.976 -2.16533,-3.43467 -6.944,-3.43467 -6.19733,0 -9.03467,6.34667 -2.76266,6.272 -2.76266,20.23467 0,14.03733 3.43466,20.384 3.50934,6.272 11.2,6.272 11.05067,0 13.51467,-12.24534 2.016,0.82134 2.016,3.28534 0,2.016 -1.568,4.33066 -1.568,2.24 -5.30133,3.88267 -3.65867,1.568 -10.00534,1.568 z"
           inkscape:connector-curvature="0" />
        <path
           id="path1102"
           style="font-style:normal;font-variant:normal;font-weight:bold;font-stretch:normal;font-size:74.66666412px;font-family:'Noto Serif Display';-inkscape-font-specification:'Noto Serif Display Bold';fill:#ffffff;fill-opacity:1;stroke:#ffffff;stroke-width:0.99900097;stroke-miterlimit:4;stroke-dasharray:none;stroke-opacity:1"
           d="m 718.6497,167.27656 v -0.74666 h 3.136 q 1.64266,0 2.688,-0.82134 1.12,-0.82133 1.12,-4.032 v -46.96533 h -4.77867 q -6.048,0 -8.81067,2.38933 -2.76266,2.38934 -3.136,8.064 l -0.224,3.28534 h -0.74666 l 0.52266,-14.48534 h 46.21867 l 0.52267,14.48534 h -0.74667 l -0.224,-3.28534 q -0.37333,-5.67466 -3.136,-8.064 -2.76267,-2.38933 -8.81067,-2.38933 h -4.77866 v 46.96533 q 0,3.21067 1.04533,4.032 1.12,0.82134 2.76267,0.82134 h 3.136 v 0.74666 z"
           inkscape:connector-curvature="0" />
        <path
           id="path1104"
           style="font-style:normal;font-variant:normal;font-weight:bold;font-stretch:normal;font-size:74.66666412px;font-family:'Noto Serif Display';-inkscape-font-specification:'Noto Serif Display Bold';fill:#ffffff;fill-opacity:1;stroke:#ffffff;stroke-width:0.99900097;stroke-miterlimit:4;stroke-dasharray:none;stroke-opacity:1"
           d="m 784.75537,168.02323 q -9.78133,0 -15.232,-3.88267 -5.45066,-3.95733 -5.45066,-13.14133 V 119.2659 q 0,-2.98667 -1.19467,-3.73334 -1.12,-0.82133 -2.61333,-0.82133 h -3.21067 v -0.74667 h 25.76 v 0.74667 h -3.136 q -1.568,0 -2.688,0.82133 -1.12,0.82134 -1.12,4.032 v 36.21334 q 0,6.272 2.98667,8.736 3.06133,2.38933 8.13866,2.38933 7.09334,0 10.976,-3.95733 3.95734,-4.032 3.95734,-11.05067 V 119.2659 q 0,-2.98667 -1.12,-3.73334 -1.12,-0.82133 -2.688,-0.82133 h -4.62934 v -0.74667 h 16.94934 v 0.74667 h -3.95734 q -1.568,0 -2.688,0.82133 -1.12,0.82134 -1.12,4.032 v 32.33067 q 0,7.98933 -4.62933,12.096 -4.62933,4.032 -13.29067,4.032 z"
           inkscape:connector-curvature="0" />
        <path
           id="path1106"
           style="font-style:normal;font-variant:normal;font-weight:bold;font-stretch:normal;font-size:74.66666412px;font-family:'Noto Serif Display';-inkscape-font-specification:'Noto Serif Display Bold';fill:#ffffff;fill-opacity:1;stroke:#ffffff;stroke-width:0.99900097;stroke-miterlimit:4;stroke-dasharray:none;stroke-opacity:1"
           d="m 813.65835,167.27656 v -0.74666 h 3.136 q 1.49334,0 2.61334,-0.74667 1.19466,-0.74667 1.19466,-3.73333 v -42.784 q 0,-2.98667 -1.19466,-3.73334 -1.12,-0.82133 -2.61334,-0.82133 h -3.136 v -0.74667 h 24.04267 q 10.60267,0 15.53067,3.584 4.928,3.50934 4.928,10.22934 0,3.95733 -1.568,6.72 -1.49334,2.76266 -4.032,4.55466 -2.464,1.792 -5.45067,2.83734 l 8.288,14.112 q 2.76267,4.77866 4.33067,7.01866 1.64266,2.24 2.61333,2.912 1.04533,0.59734 2.16533,0.59734 h 0.14934 v 0.74666 h -2.464 q -4.48,0 -7.54134,-0.52266 -3.06133,-0.52267 -5.22666,-2.09067 -2.16534,-1.568 -3.88267,-4.704 l -9.632,-17.62133 h -3.50933 v 19.712 q 0,2.98666 1.12,3.73333 1.19466,0.74667 2.688,0.74667 h 3.21066 v 0.74666 z m 18.74134,-25.68533 h 4.18133 q 4.77867,0 6.86933,-3.21067 2.16534,-3.21066 2.16534,-10.22933 0,-7.01867 -2.16534,-10.22933 -2.16533,-3.21067 -7.01866,-3.21067 h -4.032 z"
           inkscape:connector-curvature="0" />
        <path
           id="path1108"
           style="font-style:normal;font-variant:normal;font-weight:bold;font-stretch:normal;font-size:74.66666412px;font-family:'Noto Serif Display';-inkscape-font-specification:'Noto Serif Display Bold';fill:#ffffff;fill-opacity:1;stroke:#ffffff;stroke-width:0.99900097;stroke-miterlimit:4;stroke-dasharray:none;stroke-opacity:1"
           d="m 866.45004,167.27656 v -0.74666 h 3.136 q 1.568,0 2.688,-0.74667 1.12,-0.74667 1.12,-3.73333 v -42.48534 q 0,-3.21066 -1.12,-4.032 -1.04533,-0.82133 -2.688,-0.82133 h -3.136 v -0.74667 h 41.29067 l 0.448,13.73867 h -0.74667 l -0.224,-2.53867 q -0.52267,-5.67466 -3.28533,-8.064 -2.688,-2.38933 -8.66134,-2.38933 h -10.00533 v 24.34133 h 17.696 v 0.74667 h -17.696 v 26.73067 h 12.544 q 5.97333,0 8.66133,-2.38934 2.76267,-2.38933 3.28534,-8.13866 l 0.224,-2.464 h 0.74666 l -0.52266,13.73866 z"
           inkscape:connector-curvature="0" />
        <path
           id="path1110"
           style="font-style:normal;font-variant:normal;font-weight:bold;font-stretch:normal;font-size:74.66666412px;font-family:'Noto Serif Display';-inkscape-font-specification:'Noto Serif Display Bold';fill:#ffffff;fill-opacity:1;stroke:#ffffff;stroke-width:0.99900097;stroke-miterlimit:4;stroke-dasharray:none;stroke-opacity:1"
           d="m 331.29537,260.60989 -14.63466,-48.608 q -0.74667,-2.31466 -1.94134,-3.136 -1.12,-0.82133 -3.21066,-0.82133 h -0.14934 v -0.74667 h 24.93867 v 0.74667 h -2.688 q -4.48,0 -4.48,3.584 0,0.59733 0.224,1.792 0.224,1.19467 0.52267,2.24 l 5.97333,20.45867 q 1.344,4.62933 2.464,9.18399 1.19467,4.55467 2.61333,10.528 0.37334,-1.86666 0.896,-3.95733 0.52267,-2.09067 1.12,-4.55467 l 9.632,-39.49866 h 5.376 l 9.55734,28.52267 q 0.896,2.61333 1.86666,6.12266 1.04534,3.50933 2.016,6.944 0.97067,3.43467 1.568,5.6 0.59734,-2.912 1.344,-6.34667 0.82134,-3.50933 1.568,-6.72 0.74667,-3.21066 1.26934,-5.22666 l 4.928,-21.13067 q 0.29866,-1.19466 0.448,-2.09066 0.14933,-0.97067 0.14933,-1.792 0,-2.016 -1.19467,-2.83734 -1.12,-0.82133 -3.65866,-0.82133 h -4.032 v -0.74667 h 17.248 v 0.74667 h -2.09067 q -2.464,0 -3.73333,1.26933 -1.26934,1.26934 -2.016,4.62934 l -10.82667,46.66666 h -8.512 l -13.29067,-41.29066 -10.08,41.29066 z"
           inkscape:connector-curvature="0" />
        <path
           id="path1112"
           style="font-style:normal;font-variant:normal;font-weight:bold;font-stretch:normal;font-size:74.66666412px;font-family:'Noto Serif Display';-inkscape-font-specification:'Noto Serif Display Bold';fill:#ffffff;fill-opacity:1;stroke:#ffffff;stroke-width:0.99900097;stroke-miterlimit:4;stroke-dasharray:none;stroke-opacity:1"
           d="m 393.07504,260.60989 v -0.74667 h 3.136 q 1.568,0 2.688,-0.74666 1.12,-0.74667 1.12,-3.73334 v -42.48533 q 0,-3.21066 -1.12,-4.032 -1.04533,-0.82133 -2.688,-0.82133 h -3.136 v -0.74667 h 41.29067 l 0.448,13.73867 h -0.74667 l -0.224,-2.53867 q -0.52267,-5.67466 -3.28533,-8.064 -2.688,-2.38933 -8.66134,-2.38933 h -10.00533 v 24.34133 h 17.696 v 0.74667 h -17.696 v 26.73066 h 12.544 q 5.97333,0 8.66133,-2.38933 2.76267,-2.38933 3.28534,-8.13867 l 0.224,-2.464 h 0.74666 l -0.52266,13.73867 z"
           inkscape:connector-curvature="0" />
        <path
           id="path1114"
           style="font-style:normal;font-variant:normal;font-weight:bold;font-stretch:normal;font-size:74.66666412px;font-family:'Noto Serif Display';-inkscape-font-specification:'Noto Serif Display Bold';fill:#ffffff;fill-opacity:1;stroke:#ffffff;stroke-width:0.99900097;stroke-miterlimit:4;stroke-dasharray:none;stroke-opacity:1"
           d="m 441.78337,260.60989 v -0.74667 h 3.06133 q 1.64267,0 2.76267,-0.82133 1.12,-0.82133 1.12,-4.032 v -42.18666 q 0,-2.98667 -1.19467,-3.88267 -1.12,-0.896 -2.688,-0.896 h -3.06133 v -0.74667 h 21.80267 q 10.60266,0 15.97866,3.36 5.376,3.36 5.376,9.78134 0,5.74933 -4.18133,8.58666 -4.10667,2.83734 -11.94667,3.28534 v 0.14933 q 8.81067,0.14933 13.58934,3.584 4.77866,3.43467 4.77866,10.22933 0,14.336 -21.35466,14.336 z m 18.74133,-28.29866 h 2.83734 q 4.85333,0 6.944,-2.76267 2.09066,-2.83733 2.09066,-9.408 0,-6.57067 -2.09066,-9.33333 -2.09067,-2.76267 -7.09334,-2.76267 h -2.688 z m 0,27.55199 h 4.928 q 5.00267,0 7.09334,-3.06133 2.09066,-3.06133 2.09066,-10.37867 0,-7.24266 -2.09066,-10.30399 -2.09067,-3.06134 -6.944,-3.06134 h -5.07734 z"
           inkscape:connector-curvature="0" />
        <path
           id="path1116"
           style="font-style:normal;font-variant:normal;font-weight:bold;font-stretch:normal;font-size:74.66666412px;font-family:'Noto Serif Display';-inkscape-font-specification:'Noto Serif Display Bold';fill:#ffffff;fill-opacity:1;stroke:#ffffff;stroke-width:0.99900097;stroke-miterlimit:4;stroke-dasharray:none;stroke-opacity:1"
           d="m 525.6702,261.35656 q -6.19733,0 -9.856,-1.568 -3.65866,-1.64267 -5.30133,-4.10667 -1.64267,-2.464 -1.64267,-5.00267 0,-2.464 1.19467,-3.88266 1.19467,-1.49334 3.136,-2.16534 1.94133,-0.672 4.10667,-0.672 0,6.86934 1.26933,10.45334 1.344,3.584 3.584,4.928 2.24,1.26933 5.152,1.26933 4.48,0 7.31733,-2.38933 2.912,-2.38934 2.912,-7.168 0,-3.43467 -1.568,-5.74934 -1.568,-2.31466 -4.55466,-4.032 -2.912,-1.71733 -7.09334,-3.43466 -5.22666,-2.16533 -8.288,-4.48 -3.06133,-2.38933 -4.40533,-5.22667 -1.26933,-2.912 -1.26933,-6.57066 0,-6.79467 5.07733,-10.90134 5.152,-4.10666 14.18667,-4.10666 7.09333,0 10.976,2.53866 3.95733,2.464 3.95733,6.048 0,2.688 -2.31467,4.48 -2.31466,1.792 -6.86933,1.792 0,-7.24266 -1.86667,-10.60266 -1.792,-3.36 -6.19733,-3.36 -1.94133,0 -3.88267,0.74666 -1.94133,0.74667 -3.21066,2.61334 -1.26934,1.86666 -1.26934,5.30133 0,2.83733 1.26934,5.07733 1.26933,2.16534 4.18133,4.10667 2.912,1.86667 7.91467,3.88267 7.76533,3.136 11.05066,6.79466 3.28534,3.584 3.28534,9.03467 0,4.85333 -2.464,8.512 -2.464,3.65866 -7.168,5.74933 -4.62934,2.09067 -11.34934,2.09067 z"
           inkscape:connector-curvature="0" />
        <path
           id="path1118"
           style="font-style:normal;font-variant:normal;font-weight:bold;font-stretch:normal;font-size:74.66666412px;font-family:'Noto Serif Display';-inkscape-font-specification:'Noto Serif Display Bold';fill:#ffffff;fill-opacity:1;stroke:#ffffff;stroke-width:0.99900097;stroke-miterlimit:4;stroke-dasharray:none;stroke-opacity:1"
           d="m 552.47087,260.60989 v -0.74667 h 3.136 q 1.64267,0 2.688,-0.82133 1.12,-0.82133 1.12,-4.032 v -42.112 q 0,-3.21066 -1.12,-4.032 -1.04533,-0.82133 -2.688,-0.82133 h -3.136 v -0.74667 h 25.76 v 0.74667 h -3.136 q -1.64267,0 -2.76267,0.82133 -1.04533,0.82134 -1.04533,4.032 v 42.112 q 0,3.21067 1.04533,4.032 1.12,0.82133 2.76267,0.82133 h 3.136 v 0.74667 z"
           inkscape:connector-curvature="0" />
        <path
           id="path1120"
           style="font-style:normal;font-variant:normal;font-weight:bold;font-stretch:normal;font-size:74.66666412px;font-family:'Noto Serif Display';-inkscape-font-specification:'Noto Serif Display Bold';fill:#ffffff;fill-opacity:1;stroke:#ffffff;stroke-width:0.99900097;stroke-miterlimit:4;stroke-dasharray:none;stroke-opacity:1"
           d="m 591.7747,260.60989 v -0.74667 h 3.136 q 1.64266,0 2.688,-0.82133 1.12,-0.82133 1.12,-4.032 v -46.96533 h -4.77867 q -6.048,0 -8.81067,2.38933 -2.76266,2.38934 -3.136,8.064 l -0.224,3.28534 h -0.74666 l 0.52266,-14.48534 h 46.21867 l 0.52267,14.48534 h -0.74667 l -0.224,-3.28534 q -0.37333,-5.67466 -3.136,-8.064 -2.76267,-2.38933 -8.81067,-2.38933 h -4.77866 v 46.96533 q 0,3.21067 1.04533,4.032 1.12,0.82133 2.76267,0.82133 h 3.136 v 0.74667 z"
           inkscape:connector-curvature="0" />
        <path
           id="path1122"
           style="font-style:normal;font-variant:normal;font-weight:bold;font-stretch:normal;font-size:74.66666412px;font-family:'Noto Serif Display';-inkscape-font-specification:'Noto Serif Display Bold';fill:#ffffff;fill-opacity:1;stroke:#ffffff;stroke-width:0.99900097;stroke-miterlimit:4;stroke-dasharray:none;stroke-opacity:1"
           d="m 631.07504,260.60989 v -0.74667 h 3.136 q 1.568,0 2.688,-0.74666 1.12,-0.74667 1.12,-3.73334 v -42.48533 q 0,-3.21066 -1.12,-4.032 -1.04533,-0.82133 -2.688,-0.82133 h -3.136 v -0.74667 h 41.29067 l 0.448,13.73867 h -0.74667 l -0.224,-2.53867 q -0.52267,-5.67466 -3.28533,-8.064 -2.688,-2.38933 -8.66134,-2.38933 h -10.00533 v 24.34133 h 17.696 v 0.74667 h -17.696 v 26.73066 h 12.544 q 5.97333,0 8.66133,-2.38933 2.76267,-2.38933 3.28534,-8.13867 l 0.224,-2.464 h 0.74666 l -0.52266,13.73867 z"
           inkscape:connector-curvature="0" />
      </g>
    </g>
    <flowRoot
       xml:space="preserve"
       id="flowRoot988"
       style="font-style:normal;font-weight:normal;font-size:40px;line-height:1.25;font-family:sans-serif;letter-spacing:0px;word-spacing:0px;fill:#000000;fill-opacity:1;stroke:none"
       transform="matrix(0.26458333,0,0,0.26458333,50.431963,40.307467)"><flowRegion
         id="flowRegion990"><rect
           id="rect992"
           width="206.07973"
           height="123.19984"
           x="297.91962"
           y="10.455306" /></flowRegion><flowPara
         id="flowPara994"></flowPara></flowRoot>  </g>
</svg>
